<svg width="64" height="64" viewBox="0 0 64 64" fill="none" xmlns="http://www.w3.org/2000/svg">
  <path d="M31.8 25.6c-4.1-3-8.9-4.3-14-3.9v21.5c5.3-.4 10 .9 14 3.9V25.6Z" stroke="#5f5a31" stroke-width="1.8" stroke-linejoin="round"/>
  <path d="M32.2 25.6c4.1-3 8.9-4.3 14-3.9v21.5c-5.3-.4-10 .9-14 3.9V25.6Z" stroke="#5f5a31" stroke-width="1.8" stroke-linejoin="round"/>
  <path d="M22.2 28.8c2.6.1 5 .8 7.1 2M41.8 28.8c-2.6.1-5 .8-7.1 2M22.2 34.2c2.6.1 5 .8 7.1 2M41.8 34.2c-2.6.1-5 .8-7.1 2" stroke="#5f5a31" stroke-width="1.3" stroke-linecap="round"/>
</svg>
