<svg width="420" height="180" viewBox="0 0 420 180" fill="none" xmlns="http://www.w3.org/2000/svg">
  <rect width="420" height="180" fill="#F5EFE4"/>
  <circle cx="104" cy="68" r="45" fill="#F5EFE4" stroke="#5F5A31" stroke-width="1.5"/>
  <path d="M79 56.5c6.2-6 12.4 5.7 18.8-.3 4.1-3.8 7.2-3.6 11.2-.2" stroke="#5F5A31" stroke-width="2" stroke-linecap="round"/>
  <path d="M79 64.2c6.2-6 12.4 5.7 18.8-.3 4.1-3.8 7.2-3.6 11.2-.2" stroke="#5F5A31" stroke-width="2" stroke-linecap="round"/>
  <path d="M79 71.9c6.2-6 12.4 5.7 18.8-.3 4.1-3.8 7.2-3.6 11.2-.2" stroke="#5F5A31" stroke-width="2" stroke-linecap="round"/>
  <circle cx="144" cy="68" r="4.2" fill="#1D1D1B"/>
  <path d="M148 68H275" stroke="#1D1D1B" stroke-width="1.4"/>
  <text x="287" y="74" fill="#1D1D1B" font-family="Georgia, 'Times New Roman', serif" font-size="31">Состояние</text>
  <text x="287" y="101" fill="#1D1D1B" font-family="Arial, sans-serif" font-size="15" font-weight="600">эмоции</text>
  <text x="287" y="121" fill="#1D1D1B" font-family="Arial, sans-serif" font-size="15" font-weight="600">и баланс</text>
</svg>
