<svg width="420" height="180" viewBox="0 0 420 180" fill="none" xmlns="http://www.w3.org/2000/svg">
  <rect width="420" height="180" fill="#F5EFE4"/>
  <text x="42" y="74" fill="#1D1D1B" font-family="Georgia, 'Times New Roman', serif" font-size="31">Тело</text>
  <text x="42" y="101" fill="#1D1D1B" font-family="Arial, sans-serif" font-size="15" font-weight="600">движение</text>
  <text x="42" y="121" fill="#1D1D1B" font-family="Arial, sans-serif" font-size="15" font-weight="600">и ресурс</text>
  <path d="M119 68H260" stroke="#1D1D1B" stroke-width="1.4"/>
  <circle cx="260" cy="68" r="4.2" fill="#1D1D1B"/>
  <circle cx="316" cy="68" r="45" fill="#F5EFE4" stroke="#5F5A31" stroke-width="1.5"/>
  <path d="M316.5 39.7c2.2 0 4 1.8 4 4s-1.8 4-4 4-4-1.8-4-4 1.8-4 4-4Z" stroke="#5F5A31" stroke-width="1.8"/>
  <path d="M315.9 49.5v10.2l-5.6 11.6M316.1 59.7l7.6 11.9M316.2 52.5l-7.7-4.2M317 52.3l7-5.8" stroke="#5F5A31" stroke-width="1.8" stroke-linecap="round" stroke-linejoin="round"/>
  <path d="M306.8 40.8c2 3.8 4.7 6.5 8.1 8.1" stroke="#5F5A31" stroke-width="1.4" stroke-linecap="round"/>
</svg>
